<svg id="eUQWIcb2O6K1" xmlns="http://www.w3.org/2000/svg" xmlns:xlink="http://www.w3.org/1999/xlink" viewBox="0 0 240 39" shape-rendering="geometricPrecision" text-rendering="geometricPrecision"><g><path d="M27.967,0.879c-7.725-.004-15.785,1.736-23.92,3.993-1.033.208-2.041.884-2.574,1.72-.49.788-.668,1.579-.821,2.408-.79,4.428-.694,8.776-.53,13.594.036,1.103.2,2.41.715,3.205.538.803,1.46,1.313,2.561,1.48c1.406605.206317,2.81762.381361,4.232.525l-.312,8.698c-.048.692.29,1.267.71,1.598.376.286.795.413,1.225.445.86.065,1.869-.303,2.37-1.257c2.195-4.224,3.572-6.089,6.317-8.895c7.158.176,13.407-.222,20.482-.745c2.501-.065,4.218-2.11,4.672-3.743c1.357-4.232,1.568-9.456,1.712-14.737.061-2.093-.665-4.148-1.95-5.234-1.222-.991-2.702-1.35-4.058-1.718-3.767-.853-7.535-1.311-10.831-1.337Zm10.29,3.31c1.358.369,2.555.724,3.31,1.337c1.26,1.339,1.218,2.23,1.2,3.675c0,0-.388,10.093-1.544,13.86-.498,1.405-1.366,2.405-3.006,2.556-7.208.533-13.462.945-20.707.739-.285143-.009124-.561343.100198-.763.302-3.044,3.074-4.601,5.21-6.921,9.676-.054.102-.171.164-.315.175-.097-.005-.136-.08-.142-.148l.314-9.432c.019-.509-.401-.995-.907-1.05-1.691884-.161595-3.379152-.368335-5.06-.62-.726-.111-.994-.31-1.193-.606-.346-.825-.338-1.335-.365-2.128-.162-4.775-.242-8.948.491-13.1.068-.614.298-1.242.542-1.767.404-.632,1.023-.725,1.644-.897c7.956-2.197,15.74-3.84,23.068-3.845c3.592.13,7.364.49,10.354,1.273Zm-27.479,8.09c-1.096,1.313-.987,3.096-.14,4.29.442.625,1.132,1.128,1.972,1.242c1.091.09,1.783-.352,2.53-.86c1.353-1.176,1.49-3.228.461-4.71-.524-.755-1.362-1.208-2.218-1.24-1.172.012-1.968.535-2.605,1.277Zm11.856-1.072c-1.092.035-1.975.791-2.514,1.607-.617.933-.977,2.101-.478,3.246.96,2.203,4.277,2.176,5.6-.063.61-1.032.454-2.205,0-3.056-.452-.85-1.136-1.543-2.131-1.702-.157608-.025916-.317342-.036632-.477-.032Zm9.625.207c-.34-.008-.69.024-1.018.111-1.312.35-2.429,1.704-2.26,3.437.086.872.487,1.722,1.21,2.308.723.585,1.773.847,2.88.62c1.272-.26,2.06-1.285,2.323-2.275s.197-1.999-.414-2.817c-.644242-.856678-1.648238-1.367534-2.72-1.384ZM13.294,13.037c.245.002.438.08.637.366.445.642.321,1.615-.128,2.005-.447.39-.726.424-.922.398-.196-.027-.395-.162-.573-.414-.34-.48-.44-1.256.007-1.81.238-.316.675-.513.98-.545Zm9.483.223c.038.006.464.253.668.636s.242.739.048,1.066c-.577.976-1.804.712-1.99.287-.07-.162-.017-.813.32-1.32.335-.509.757-.7.954-.67Zm10.564.748c.062.083.213.64.096,1.082-.118.442-.31.715-.78.811-.602.124-.94,0-1.193-.207-.254-.205-.425-.552-.462-.923-.09-.92.24-1.133.764-1.273.61-.15,1.3.112,1.575.51Z" fill="#fff"/><path d="M57.61,4.996c.016-.26.111-.494.287-.701.173569-.205625.432097-.319952.701-.31h6.826c.23,0,.467.096.712.287.232959.167254.370183.437226.368.724v10.893h11.421v-10.893c0-.276.096-.513.287-.712.192-.2.44-.3.747-.3h6.734c.306,0,.574.077.804.23.23.154.345.399.345.736v32.15c0,.337-.1.59-.3.758-.198.169-.459.253-.78.253h-6.803c-.306,0-.555-.084-.747-.253-.191-.168-.287-.42-.287-.758v-13.053h-11.421v13.053c0,.322-.104.57-.31.747-.207.176-.487.264-.84.264h-6.756c-.643,0-.972-.299-.988-.896v-32.219Zm62.875,32.725c-.199.168-.41.275-.632.321-.207409.044707-.418835.068162-.631.07h-3.47c-.276,0-.514-.05-.713-.15-.2-.1-.368-.234-.506-.402-.141164-.174516-.256974-.368095-.344-.575-.092601-.216173-.169468-.438752-.23-.666l-.712-2.942c-.23.475-.563,1.015-1,1.62-.4728.642044-1.033637,1.214327-1.666,1.7-.674.53-1.479.974-2.413,1.334-.935.36-2.007.54-3.218.54-1.746,0-3.332-.337-4.757-1.011-1.395128-.651852-2.636366-1.591812-3.642-2.758-1.003-1.164-1.781-2.524-2.332-4.08-.552-1.554-.828-3.213-.828-4.974v-15.053c0-.582.127-1.022.38-1.321.252-.299.654-.448,1.206-.448h5.308c.66,0,1.111.11,1.356.333.245.222.368.655.368,1.298v14.96c0,.66.15,1.284.448,1.874.299.59.693,1.11,1.184,1.562.49.452,1.045.809,1.666,1.069.62.26,1.252.39,1.896.39.551,0,1.122-.13,1.712-.39.593891-.263333,1.143938-.616091,1.631-1.046.498-.436.908-.95,1.23-1.54s.482-1.214.482-1.872v-14.938c0-.26.05-.52.15-.781.1-.26.249-.46.448-.598.199-.122.387-.206.563-.252s.38-.07.609-.07h5.194c.658,0,1.133.162,1.424.483.291.322.437.751.437,1.287v25.716c0,.29-.065.559-.195.804s-.31.437-.54.574l.137-.068Zm26.681-3.172c-.414.414-.87.858-1.367,1.333-.498.475-1.046.92-1.643,1.333-.600914.415631-1.248715.758998-1.93,1.023-.711684.272166-1.468078.40852-2.23.402-2.083,0-4.002-.39-5.757-1.172-1.710765-.750674-3.250981-1.841448-4.527-3.206-1.264-1.356-2.252-2.953-2.964-4.792-.713-1.838-1.069-3.814-1.069-5.929c0-2.13.356-4.11,1.069-5.94.712-1.83,1.7-3.424,2.964-4.78c1.274515-1.363256,2.815318-2.450361,4.527-3.194c1.755-.774,3.674-1.161,5.757-1.161.843,0,1.613.123,2.31.368.67256.233013,1.313229.549484,1.907.942.575.383,1.103.816,1.586,1.298.482.483.938.954,1.367,1.414v-10.503c0-.49.15-.903.448-1.24.299-.338.747-.506,1.345-.506h5.17c.2,0,.41.042.632.126.222.085.425.203.61.357.183.153.332.337.447.551.115.215.173.452.173.712v34.357c0,1.18-.62,1.77-1.862,1.77h-4.504c-.306,0-.544-.04-.712-.116-.166856-.07489-.313041-.189161-.426-.333-.128002-.168654-.232305-.354043-.31-.551-.10833-.259451-.223032-.516195-.344-.77l-.667-1.793ZM133.952,23.541c-.007681.966397.151662,1.926856.471,2.839.314.88.762,1.643,1.345,2.286.588494.648062,1.303982,1.16817,2.102,1.528.82.376,1.728.563,2.724.563.98,0,1.903-.176,2.769-.528.84105-.336908,1.609367-.832596,2.263-1.46.649436-.628314,1.175795-1.372407,1.552-2.194.39-.843.609-1.747.655-2.712v-.322c.003462-.961671-.18417-1.914448-.552-2.803-.356224-.871086-.874757-1.666533-1.528-2.344-.654885-.676676-1.435456-1.219135-2.298-1.597-.90165-.394971-1.876673-.594679-2.861-.586-.996,0-1.904.195-2.724.586-.82.39-1.52.923-2.102,1.597-.591554.689937-1.047844,1.485136-1.345,2.344-.315696.900609-.474665,1.848673-.47,2.803Zm48.72,11.008c-.414.414-.87.858-1.368,1.333s-1.046.92-1.643,1.333c-.600914.415631-1.248715.758998-1.93,1.023-.711684.272166-1.468078.40852-2.23.402-2.083,0-4.002-.39-5.756-1.172-1.711123-.750556-3.251689-1.841337-4.528-3.206-1.263-1.356-2.252-2.953-2.964-4.792-.712-1.838-1.069-3.814-1.069-5.929c0-2.13.357-4.11,1.069-5.94s1.7-3.424,2.964-4.78c1.274807-1.363368,2.81596-2.450479,4.528-3.194c1.754-.774,3.673-1.161,5.756-1.161.843,0,1.613.123,2.31.368.67256.233013,1.313229.549484,1.907.942.575.383,1.103.816,1.586,1.298.483.483.938.954,1.367,1.414v-10.503c0-.49.15-.903.448-1.24.3-.338.747-.506,1.345-.506h5.17c.2,0,.41.042.632.126.223.085.426.203.61.357.183.153.333.337.448.551.114.215.172.452.172.712v34.357c0,1.18-.62,1.77-1.862,1.77h-4.504c-.306,0-.544-.04-.712-.116-.166493-.075028-.312322-.189289-.425-.333-.128002-.168654-.232305-.354043-.31-.551-.10866-.25946-.223695-.516205-.345-.77l-.667-1.793ZM169.457,23.541c-.007681.966397.151662,1.926856.471,2.839.315.88.763,1.643,1.345,2.286.588786.648173,1.304624,1.168287,2.103,1.528.82.376,1.727.563,2.723.563.98,0,1.903-.176,2.769-.528.841405-.336794,1.610071-.832489,2.264-1.46.648719-.628486,1.174392-1.372568,1.55-2.194.391-.843.61-1.747.656-2.712v-.322c.003462-.961671-.18417-1.914448-.552-2.803-.356224-.871086-.874757-1.666533-1.528-2.344-.654885-.676676-1.435456-1.219135-2.298-1.597-.90165-.394971-1.876673-.594679-2.861-.586-.996,0-1.904.195-2.723.586-.82.39-1.521.923-2.103,1.597-.591554.689937-1.047844,1.485136-1.345,2.344-.315696.900609-.474665,1.848673-.47,2.803ZM197.61,2.008c0-.49.122-.903.367-1.24.246-.338.667-.506,1.264-.506h5.63c.154,0,.315.042.483.126.17664.090587.336048.211413.471.357.146.153.268.337.368.551.1.215.15.452.15.712v34.334c0,.582-.165,1.022-.495,1.321-.329.299-.754.448-1.275.448h-5.332c-.597,0-1.018-.15-1.264-.448-.245-.299-.367-.74-.367-1.321v-34.334Zm38.7,32.61c-1.332472,1.230901-2.873093,2.215205-4.55,2.907-1.698138.699784-3.51835,1.055328-5.355,1.046-2.1,0-4.083-.383-5.952-1.15-1.826742-.738318-3.495899-1.818281-4.918-3.182-1.416643-1.366246-2.555868-2.993419-3.355-4.792-.828-1.838-1.241-3.837-1.241-5.998c0-1.348.164-2.654.494-3.918.318808-1.236733.789734-2.429163,1.402-3.55.605193-1.1032,1.346306-2.126177,2.206-3.045.857372-.92037,1.835226-1.720616,2.907-2.379c1.090426-.666847,2.265185-1.184777,3.493-1.54c1.291907-.372461,2.630492-.558011,3.975-.551c1.272,0,2.505.169,3.7.506s2.318.812,3.367,1.424c1.05.613,2.01,1.349,2.884,2.207.86186.843704,1.618062,1.788958,2.252,2.815.628322,1.018581,1.119241,2.115751,1.46,3.263.344,1.157.517,2.348.517,3.573c0,.797-.012,1.448-.035,1.954-.023.505-.142.908-.356,1.206-.215.3-.57.506-1.069.62-.498.116-1.23.173-2.194.173h-16.546c.153.98.463,1.8.93,2.46.432565.624697.982842,1.159009,1.62,1.573.613.391,1.264.67,1.954.84.638586.161765,1.294267.246369,1.953.252.552,0,1.118-.058,1.7-.172.573643-.112575,1.138437-.266306,1.69-.46.515808-.179271,1.015303-.402421,1.493-.667.452-.252.816-.517,1.092-.792.245-.2.456-.349.632-.449s.364-.149.563-.149c.2,0,.402.07.61.207.25191.176128.48632.376046.7.597l2.436,2.758c.168.2.276.38.322.54.046.161.069.326.069.494c0,.307-.085.571-.253.793-.169832.223325-.371279.42073-.598.586ZM225.256,15.475c-.598,0-1.176.119-1.735.356-.567322.242213-1.097565.563389-1.575.954-.49.398-.93.85-1.321,1.356-.373137.477057-.693035.993455-.954,1.54h11.743c-.307939-.576161-.657185-1.129274-1.045-1.655-.368762-.498786-.801466-.946956-1.287-1.333-.496723-.390573-1.056411-.693583-1.655-.896-.62-.215-1.344-.322-2.171-.322Z" fill="#fff"/></g></svg>
